<svg xmlns="http://www.w3.org/2000/svg" viewBox="0 0 951.07 332.58"><defs><style>.cls-1{fill:#f7bc0e;}.cls-2{fill:#55ac25;}.cls-3{fill:#12491d;}.cls-4{fill:#237d26;}</style></defs><title>LOGO_CONGRESSO_Ativo 1</title><g id="Camada_2" data-name="Camada 2"><g id="Camada_1-2" data-name="Camada 1"><path class="cls-1" d="M166.29,31.26c-63.64,0-117.18,44.05-131.75,103.25a212.72,212.72,0,0,1,21.67,4.78,113.49,113.49,0,0,1,218.73-5.15,213.85,213.85,0,0,1,21.67-4.93C280.24,72.7,228,31.26,166.29,31.26Z"/><path class="cls-1" d="M62.59,63.22a146.71,146.71,0,0,1,245,64.39q9.93-1.19,20.08-1.42A166.33,166.33,0,0,0,3.6,131.71q10.1.16,20,1.28a146.37,146.37,0,0,1,39-69.77Z"/><path class="cls-1" d="M166.29,128a38.93,38.93,0,0,0-38.23,46.23,247.77,247.77,0,0,1,35.49,31.51l.43,0a249.74,249.74,0,0,1,41.2-37.57c0-.42,0-.85,0-1.27A39,39,0,0,0,166.29,128Z"/><path class="cls-1" d="M166.29,63.51A103.59,103.59,0,0,0,65.87,142.2a217,217,0,0,1,21.78,8.47,80.31,80.31,0,0,1,156.08-5,216.7,216.7,0,0,1,21.59-8.55A103.6,103.6,0,0,0,166.29,63.51Z"/><path class="cls-1" d="M166.29,95.75a71.29,71.29,0,0,0-70.12,59,228.51,228.51,0,0,1,23,13.37c0-.4,0-.79,0-1.18a47.09,47.09,0,0,1,94-4.25,228.85,228.85,0,0,1,22.17-12.95A71.29,71.29,0,0,0,166.29,95.75Z"/><path class="cls-2" d="M217.12,36.89h0L196,47.35a68.21,68.21,0,0,0-37.14,50.31,68.17,68.17,0,0,0-50.34-36.52L85.38,57.6h0c-5.37,37.25,20.23,72,57.17,77.7l21.53,3.3.08.25c.16.56.33,1.12.47,1.68l.4,1.68a104.68,104.68,0,0,1,2.79,27.2l-.11,3.42c-.06,1.14-.08,2.27-.21,3.41-.21,2.27-.46,4.55-.7,6.81-.12,1.14-.34,2.27-.53,3.4l-.57,3.39-.3,1.7c-.11.56-.19,1.12-.33,1.69-.27,1.12-.52,2.25-.8,3.37l-.82,3.36-.43,1.68c-.07.28-.13.56-.21.84l-.26.84c-.34,1.11-.69,2.23-1.05,3.34s-.71,2.22-1.08,3.33l-.55,1.66-.27.83-.33.82c-.43,1.1-.86,2.2-1.31,3.3-.89,2.19-1.81,4.38-2.79,6.55l16.38,2.16c.18-2.36.41-4.7.67-7,.13-1.17.27-2.34.41-3.5l.11-.87.07-.88.14-1.76.31-3.5c.1-1.17.21-2.33.34-3.49s.14-2.34.23-3.5l.21-3.5c.07-1.16.17-2.32.24-3.49s.06-2.33.11-3.49c.06-2.33.15-4.66.2-7s-.06-4.65-.05-7c0-1.16-.07-2.32-.13-3.48l-.15-3.49a201.26,201.26,0,0,0-3.44-27.76l-.33-1.73c-.12-.58-.27-1.15-.39-1.72l-.37-1.63,16.45-8.14A68.29,68.29,0,0,0,217.12,36.89Z"/><path class="cls-3" d="M332.58,166.29a166.34,166.34,0,0,1-104.9,154.58C215,276.53,189.43,226,160.44,194.77c42.23-48.14,103.35-67.12,167.26-68.58A166.12,166.12,0,0,1,332.58,166.29Z"/><path class="cls-4" d="M227.68,320.87A166.42,166.42,0,0,1,3.6,131.71c61.93,1,129.88,17.85,171.9,63.06C204.49,226,215,276.53,227.68,320.87Z"/><path class="cls-3" d="M388.85,150.67V81.56h23.36a32.75,32.75,0,0,1,14.05,2.76,20.5,20.5,0,0,1,9,8,23.7,23.7,0,0,1,3.16,12.59,23.59,23.59,0,0,1-3.16,12.44,20.41,20.41,0,0,1-9,8,32.6,32.6,0,0,1-14.05,2.77H391.46l2.14-2.37v25ZM393.6,126l-2.14-2.47h20.75q10.52,0,16-4.89t5.44-13.77q0-9-5.44-13.88t-16-4.88H391.46l2.14-2.47Z"/><path class="cls-3" d="M456.13,150.67V99.13h4.47v14.12l-.47-1.58a18.16,18.16,0,0,1,6.89-9.58,20.77,20.77,0,0,1,12.1-3.35v4.83a2.59,2.59,0,0,1-.56,0,3.53,3.53,0,0,0-.56,0q-8.1,0-12.66,5.39t-4.55,15v26.86Z"/><path class="cls-3" d="M515.13,151.06a23.13,23.13,0,0,1-12.42-3.35,24.29,24.29,0,0,1-8.66-9.28,30.22,30.22,0,0,1,0-27.11,24.37,24.37,0,0,1,8.66-9.23,23.22,23.22,0,0,1,12.42-3.35,23.5,23.5,0,0,1,12.47,3.35,23.89,23.89,0,0,1,8.65,9.23,30.65,30.65,0,0,1,0,27.11,23.82,23.82,0,0,1-8.65,9.28A23.41,23.41,0,0,1,515.13,151.06Zm0-4.44a19,19,0,0,0,10-2.71,18.65,18.65,0,0,0,7-7.66,27,27,0,0,0,0-22.75,18.7,18.7,0,0,0-7-7.61,19,19,0,0,0-10-2.71,18.7,18.7,0,0,0-10,2.71,19,19,0,0,0-7,7.61,26.55,26.55,0,0,0,0,22.75,19,19,0,0,0,7,7.66A18.7,18.7,0,0,0,515.13,146.62Z"/><path class="cls-3" d="M577.19,151.06a23.11,23.11,0,0,1-12.23-3.3,23.6,23.6,0,0,1-8.61-9.23,31.08,31.08,0,0,1,0-27.31A23.67,23.67,0,0,1,565,102a23.11,23.11,0,0,1,12.23-3.3,21.82,21.82,0,0,1,11.59,3.15,22.4,22.4,0,0,1,8.19,9,30.17,30.17,0,0,1,3,14,30.57,30.57,0,0,1-3,13.92,21.39,21.39,0,0,1-19.82,12.24Zm.28-4.44a18.73,18.73,0,0,0,10-2.71,19,19,0,0,0,7-7.66,26.55,26.55,0,0,0,0-22.75,19.09,19.09,0,0,0-7-7.61,19.82,19.82,0,0,0-20,0,19.12,19.12,0,0,0-7,7.61,26.55,26.55,0,0,0,0,22.75,19.06,19.06,0,0,0,7,7.66A18.72,18.72,0,0,0,577.47,146.62Zm19.64,4V133.79l.83-9-.93-9V77.41h4.66v73.26Z"/><path class="cls-3" d="M645.68,151.06a22.58,22.58,0,0,1-10.79-2.42,16.3,16.3,0,0,1-7-7.3,26.75,26.75,0,0,1-2.47-12.1V99.13h4.66v29.72q0,8.68,4.18,13.23c2.8,3,6.73,4.54,11.82,4.54a17.68,17.68,0,0,0,9.49-2.47,16,16,0,0,0,6.14-7,24.38,24.38,0,0,0,2.14-10.61V99.13h4.66v51.54H664V136.35l.65,1.68a19.19,19.19,0,0,1-7.12,9.53A20,20,0,0,1,645.68,151.06Z"/><path class="cls-3" d="M684.85,103.37V99.13h29v4.24ZM707,151.06q-6.42,0-9.82-3.75T693.79,137V87.87h4.65v48.68c0,3.29.77,5.82,2.33,7.6a8.4,8.4,0,0,0,6.7,2.67A10.38,10.38,0,0,0,715,144l2,3.46a11.29,11.29,0,0,1-4.52,2.76A16.77,16.77,0,0,1,707,151.06Z"/><path class="cls-3" d="M751.76,151.06a23.13,23.13,0,0,1-12.42-3.35,24.29,24.29,0,0,1-8.66-9.28,30.22,30.22,0,0,1,0-27.11,24.37,24.37,0,0,1,8.66-9.23,23.22,23.22,0,0,1,12.42-3.35,23.5,23.5,0,0,1,12.47,3.35,23.89,23.89,0,0,1,8.65,9.23,30.65,30.65,0,0,1,0,27.11,23.82,23.82,0,0,1-8.65,9.28A23.41,23.41,0,0,1,751.76,151.06Zm0-4.44a19,19,0,0,0,10-2.71,18.65,18.65,0,0,0,7-7.66,27,27,0,0,0,0-22.75,18.7,18.7,0,0,0-7-7.61,19,19,0,0,0-10-2.71,18.76,18.76,0,0,0-10,2.71,19.09,19.09,0,0,0-7,7.61,26.55,26.55,0,0,0,0,22.75,19,19,0,0,0,7,7.66A18.76,18.76,0,0,0,751.76,146.62Z"/><path class="cls-3" d="M795.12,150.67V99.13h4.47v14.12l-.47-1.58a18.11,18.11,0,0,1,6.89-9.58,20.74,20.74,0,0,1,12.09-3.35v4.83a2.56,2.56,0,0,1-.55,0,3.64,3.64,0,0,0-.56,0q-8.1,0-12.66,5.39t-4.56,15v26.86Z"/><path class="cls-3" d="M416.49,257.44a38,38,0,0,1-14.24-2.62A33.51,33.51,0,0,1,383.36,236a40.51,40.51,0,0,1,0-29,33.53,33.53,0,0,1,18.89-18.8,40.56,40.56,0,0,1,30.39.69,30.52,30.52,0,0,1,11.86,9.72l-11.72,11.26a23.45,23.45,0,0,0-7-6,17.31,17.31,0,0,0-8.38-2.07,19.09,19.09,0,0,0-7.35,1.38,15.86,15.86,0,0,0-5.72,4,19,19,0,0,0-3.72,6.27,24.95,24.95,0,0,0,0,16.19,18.8,18.8,0,0,0,3.72,6.27,15.62,15.62,0,0,0,5.72,4,18.91,18.91,0,0,0,7.35,1.38,17.31,17.31,0,0,0,8.38-2.07,22.71,22.71,0,0,0,7-6.12L444.5,244.3a31,31,0,0,1-11.86,9.78A37.41,37.41,0,0,1,416.49,257.44Z"/><path class="cls-3" d="M480.23,256.94a29.83,29.83,0,0,1-14.7-3.55,26.14,26.14,0,0,1-10.1-9.83,29.75,29.75,0,0,1,0-28.63,26.19,26.19,0,0,1,10.1-9.82,32.23,32.23,0,0,1,29.45,0,26.09,26.09,0,0,1,10.14,9.82,29.68,29.68,0,0,1,0,28.63A26,26,0,0,1,495,253.39,30.11,30.11,0,0,1,480.23,256.94Zm0-14.9a9.86,9.86,0,0,0,5.35-1.49,10.54,10.54,0,0,0,3.82-4.39,15.55,15.55,0,0,0,1.44-7,14.86,14.86,0,0,0-1.44-6.91,10.83,10.83,0,0,0-3.82-4.25,10.41,10.41,0,0,0-10.7,0,10.74,10.74,0,0,0-3.81,4.25,14.73,14.73,0,0,0-1.45,6.91,15.41,15.41,0,0,0,1.45,7,10.45,10.45,0,0,0,3.81,4.39A9.89,9.89,0,0,0,480.23,242Z"/><path class="cls-3" d="M554.39,201.55A21.94,21.94,0,0,1,565,204.12a18.18,18.18,0,0,1,7.49,7.8q2.75,5.24,2.75,13.53v30.6H557.46V228.51q0-5.73-2.18-8.34a7.29,7.29,0,0,0-5.91-2.62,10.25,10.25,0,0,0-5.21,1.33,9,9,0,0,0-3.63,4.1,17.26,17.26,0,0,0-1.31,7.31v25.76H521.55V202.44h16.93v15.31l-3.35-4.45a20.75,20.75,0,0,1,7.91-8.73A21.62,21.62,0,0,1,554.39,201.55Z"/><path class="cls-3" d="M618.13,256.94a32.48,32.48,0,0,1-15.68-3.6,26.12,26.12,0,0,1-10.33-9.87,27.51,27.51,0,0,1-3.67-14.17A28.43,28.43,0,0,1,592,214.93a25.83,25.83,0,0,1,9.86-9.82,28.51,28.51,0,0,1,14.29-3.56,28,28,0,0,1,13.54,3.31,25.33,25.33,0,0,1,9.77,9.48q3.68,6.16,3.67,15.06c0,.65,0,1.41-.09,2.27s-.12,1.64-.19,2.37H603v-9.88h30.52l-6.7,2.77a13.14,13.14,0,0,0-1.26-6.27,10.29,10.29,0,0,0-3.68-4.2,10,10,0,0,0-5.49-1.48,10.6,10.6,0,0,0-5.67,1.48,9.43,9.43,0,0,0-3.68,4.2,15.14,15.14,0,0,0-1.25,6.37v2.86a14.26,14.26,0,0,0,1.53,6.81,10.54,10.54,0,0,0,4.42,4.4,14.51,14.51,0,0,0,6.89,1.53,16,16,0,0,0,6.42-1.14,19.52,19.52,0,0,0,5.21-3.5l9.21,10.36a23.11,23.11,0,0,1-8.84,6.37A32.11,32.11,0,0,1,618.13,256.94Z"/><path class="cls-3" d="M681.78,256.94a30.74,30.74,0,0,1-15-3.55,26.31,26.31,0,0,1-10.24-9.83,29.31,29.31,0,0,1,0-28.58,26.86,26.86,0,0,1,10.24-9.82,30.44,30.44,0,0,1,15-3.61,27.43,27.43,0,0,1,14.8,3.9,21.33,21.33,0,0,1,8.84,10.82l-13.68,7.5a13,13,0,0,0-4.38-5.48,10.06,10.06,0,0,0-5.67-1.73,10.51,10.51,0,0,0-5.54,1.48,10.83,10.83,0,0,0-3.95,4.25,17,17,0,0,0,0,13.92,10.33,10.33,0,0,0,9.49,5.83,10.06,10.06,0,0,0,5.67-1.73,13,13,0,0,0,4.38-5.48l13.68,7.4A21.3,21.3,0,0,1,696.58,253,27.34,27.34,0,0,1,681.78,256.94Z"/><path class="cls-3" d="M712.3,218.54v-14h36.57v14Zm27.82,38.4q-9.68,0-15.07-5.08t-5.4-15.35v-46h17.68v45.71a6.66,6.66,0,0,0,1.44,4.64,5,5,0,0,0,3.87,1.58,9,9,0,0,0,5.39-1.68l4.47,13a16.1,16.1,0,0,1-5.63,2.42A29.59,29.59,0,0,1,740.12,256.94Z"/><path class="cls-3" d="M779.76,256.94a22.09,22.09,0,0,1-10.19-2.17,15.32,15.32,0,0,1-6.42-5.92,16.16,16.16,0,0,1-2.18-8.3,15.44,15.44,0,0,1,2.37-8.59,14.81,14.81,0,0,1,7.35-5.58,35.7,35.7,0,0,1,12.7-1.92H795.3v9.87h-9.49q-4.27,0-6,1.38a4.78,4.78,0,0,0-1.72,3.95,4.93,4.93,0,0,0,1.77,3.9,7.07,7.07,0,0,0,4.83,1.54,9.57,9.57,0,0,0,5.35-1.54,8.37,8.37,0,0,0,3.4-4.69l2.42,6.92a13.84,13.84,0,0,1-5.44,8.34Q786.37,256.94,779.76,256.94Zm14.89-.89v-10l-1.21-2.47V225.25a9,9,0,0,0-2.56-6.86c-1.7-1.61-4.42-2.42-8.14-2.42a23,23,0,0,0-7.4,1.28,22.66,22.66,0,0,0-6.37,3.26l-5.86-12.64a34.14,34.14,0,0,1,10.28-4.64,44.15,44.15,0,0,1,12-1.68q12.27,0,19,6t6.75,18.76v29.71Z"/><path class="cls-3" d="M849.55,256.94a23.77,23.77,0,0,1-12.47-3.4,24.28,24.28,0,0,1-9-9.58,34.44,34.44,0,0,1,0-29.42,24.22,24.22,0,0,1,9-9.58,23.78,23.78,0,0,1,12.47-3.41,19.46,19.46,0,0,1,11,3,18.33,18.33,0,0,1,6.89,9.13q2.33,6.12,2.32,15.6t-2.18,15.6a17.46,17.46,0,0,1-6.7,9.08A20.24,20.24,0,0,1,849.55,256.94Zm3.72-14.9a9.86,9.86,0,0,0,5.35-1.49,10.17,10.17,0,0,0,3.77-4.39,15.73,15.73,0,0,0,1.4-6.86,15.51,15.51,0,0,0-1.4-7,10.43,10.43,0,0,0-3.77-4.25,9.85,9.85,0,0,0-5.35-1.48,10,10,0,0,0-5.44,1.48,10.43,10.43,0,0,0-3.77,4.25,15.51,15.51,0,0,0-1.4,7,15.73,15.73,0,0,0,1.4,6.86,10.17,10.17,0,0,0,3.77,4.39A10,10,0,0,0,853.27,242Zm11.08,14v-9.18l.09-17.67-.93-17.67V182.79h17.68v73.26Z"/><path class="cls-3" d="M922.5,256.94a29.83,29.83,0,0,1-14.7-3.55,26.14,26.14,0,0,1-10.1-9.83,29.75,29.75,0,0,1,0-28.63,26.19,26.19,0,0,1,10.1-9.82,32.23,32.23,0,0,1,29.45,0,26.09,26.09,0,0,1,10.14,9.82,29.68,29.68,0,0,1,0,28.63,26,26,0,0,1-10.14,9.83A30.11,30.11,0,0,1,922.5,256.94Zm0-14.9a9.86,9.86,0,0,0,5.35-1.49,10.47,10.47,0,0,0,3.82-4.39,15.55,15.55,0,0,0,1.44-7,14.86,14.86,0,0,0-1.44-6.91,10.76,10.76,0,0,0-3.82-4.25,10.41,10.41,0,0,0-10.7,0,10.74,10.74,0,0,0-3.81,4.25,14.73,14.73,0,0,0-1.45,6.91,15.41,15.41,0,0,0,1.45,7,10.45,10.45,0,0,0,3.81,4.39A9.89,9.89,0,0,0,922.5,242Z"/></g></g></svg>